<!DOCTYPE svg PUBLIC "-//W3C//DTD SVG 1.1//EN" "http://www.w3.org/Graphics/SVG/1.1/DTD/svg11.dtd">
<!-- Uploaded to: SVG Repo, www.svgrepo.com, Transformed by: SVG Repo Mixer Tools -->
<svg fill="#ffffff" width="800px" height="800px" viewBox="0 0 36 36" version="1.1" preserveAspectRatio="xMidYMid meet" xmlns="http://www.w3.org/2000/svg" xmlns:xlink="http://www.w3.org/1999/xlink">
<g id="SVGRepo_bgCarrier" stroke-width="0"/>
<g id="SVGRepo_tracerCarrier" stroke-linecap="round" stroke-linejoin="round"/>
<g id="SVGRepo_iconCarrier"> <title>terminal-solid</title> <path d="M32,5H4A2,2,0,0,0,2,7V29a2,2,0,0,0,2,2H32a2,2,0,0,0,2-2V7A2,2,0,0,0,32,5ZM6.8,15.81V13.17l10,4.59v2.08l-10,4.59V21.78l6.51-3ZM23.4,25.4H17V23h6.4ZM4,9.2V7H32V9.2Z" class="clr-i-solid clr-i-solid-path-1"/> <rect x="0" y="0" width="36" height="36" fill-opacity="0"/> </g>
</svg>