<!DOCTYPE svg PUBLIC "-//W3C//DTD SVG 1.1//EN" "http://www.w3.org/Graphics/SVG/1.1/DTD/svg11.dtd">

<!-- Uploaded to: SVG Repo, www.svgrepo.com, Transformed by: SVG Repo Mixer Tools -->
<svg width="42" height="42" viewBox="0 0 42 42" xmlns="http://www.w3.org/2000/svg">
  <path fill="#FFFFFF" d="M39.5,10.5v-1c0-1.47-0.48-2-2-2h-34c-1.53,0-2,0.52-2,2v1c0,1.55,0.52,2,2,2h34C39,12.5,39.5,12.02,39.5,10.5z M39.5,21.5v-1c0-1.47-0.48-2-2-2h-34c-1.53,0-2,0.52-2,2v1c0,1.55,0.52,2,2,2h34C39,23.5,39.5,23.02,39.5,21.5z M39.5,32.5v-1c0-1.471-0.48-2-2-2h-34c-1.53,0-2,0.52-2,2v1c0,1.55,0.52,2,2,2h34C39,34.5,39.5,34.02,39.5,32.5z"/>
</svg>